<svg viewBox="0 0 150 42" fill="none" xmlns="http://www.w3.org/2000/svg">
<path d="M5.59375 40.8374L7.1448 35.4249C8.99027 35.9222 10.9075 36.1771 12.8643 36.1771C16.3057 36.1771 19.6286 35.3836 22.6374 33.8828L25.2835 38.8788C21.4633 40.7853 17.2338 41.796 12.8643 41.796C10.3815 41.796 7.94187 41.4711 5.59375 40.8374Z" fill="#FF7070"/>

<g>
<path d="M0 38.6585L2.73947 33.7109C4.13793 34.4398 5.60999 35.016 7.1377 35.4254L5.59384 40.8397C3.64784 40.3173 1.77366 39.5848 0 38.6585Z" fill="#212449"/>
<path d="M138.295 9.60938C141.23 9.60938 143.402 10.6955 144.488 12.0921V9.99714H149.998V30.0513H144.488V27.9958C143.402 29.353 141.232 30.4785 138.295 30.4785C132.425 30.4785 128.281 26.3281 128.281 20.0449C128.281 13.7204 132.423 9.60938 138.295 9.60938ZM139.259 14.4582C136.324 14.4582 134.232 16.476 134.232 20.0431C134.232 23.6101 136.324 25.5902 139.259 25.5902C142.155 25.5902 144.165 23.7286 144.165 20.4703V19.5781C144.165 16.3575 142.155 14.4582 139.259 14.4582Z" fill="#212449"/>
<path d="M121.663 0C123.634 0 125.201 1.51335 125.201 3.41267C125.201 5.27429 123.632 6.78764 121.663 6.78764C119.694 6.78764 118.164 5.27429 118.164 3.41267C118.166 1.51335 119.774 0 121.663 0ZM124.6 30.2634H118.73V10.2093H124.6V30.2634Z" fill="#212449"/>
<path d="M115.02 10.1016V15.5715C111.642 15.5715 109.511 17.4332 109.511 20.187V30.3496H103.641V10.2972H109.31V12.5861C110.195 11.2667 111.843 10.1016 115.02 10.1016Z" fill="#212449"/>
<path d="M94.6666 14.881L94.6271 22.3292C94.6271 24.5409 96.1153 25.3541 97.7633 25.3541C98.6071 25.3541 99.1313 25.2375 99.5729 25.1603V30.203C98.7291 30.3197 97.9249 30.4364 96.3164 30.4364C91.8122 30.4364 88.7155 28.3414 88.7568 23.6864L88.7963 14.881H85.0156V9.99263H88.8358L88.8753 3.35938H94.7456L94.7061 9.99263H99.5711V14.881H94.6666Z" fill="#212449"/>
<path d="M83.2349 21.8275H68.9595C69.0798 24.3103 70.6488 25.9008 73.3021 25.9008C75.3522 25.9008 76.6806 25.0858 77.1223 23.6891L83.0338 23.9602C82.3104 27.7624 78.3286 30.4768 73.4636 30.4768C67.1104 30.4768 62.7266 26.4806 62.7266 20.0431C62.7266 13.566 67.1104 9.60938 73.3021 9.60938C79.2945 9.60938 83.2349 13.3326 83.2349 19.5781V21.8275ZM73.2626 14.0309C70.7691 14.0309 69.1211 15.5048 68.9595 18.0648H77.3233C77.203 15.6215 75.9159 14.0309 73.2626 14.0309Z" fill="#212449"/>
<path d="M51.4559 9.85156C56.2006 9.85156 59.3368 12.916 59.3368 17.9982V30.2953H53.4665V19.1238C53.4665 16.5638 52.2601 15.1277 50.0089 15.1277C47.9175 15.1277 46.6304 16.4471 46.3898 18.4631V30.2935H40.5195V19.122C40.5195 16.562 39.2736 15.1259 37.1409 15.1259C34.809 15.1259 33.4015 16.7559 33.4015 19.1597V30.2917H27.5312V9.96466H33.0802V12.2948C34.0047 10.8982 35.694 9.85156 38.5484 9.85156C41.4027 9.85156 43.6952 10.9772 45.0632 13.0327C46.2695 11.2087 48.3196 9.85156 51.4559 9.85156Z" fill="#212449"/>
<path d="M12.9745 9.45312C18.9723 9.45312 23.8319 14.1727 23.8319 19.9909C23.8319 25.811 18.9705 30.5305 12.9745 30.5305C6.97859 30.5305 2.11719 25.811 2.11719 19.9909C2.11719 14.1727 6.97859 9.45312 12.9745 9.45312ZM12.9745 25.0749C15.8666 25.0749 18.2111 22.8004 18.2111 19.9909C18.2111 17.185 15.8666 14.9087 12.9745 14.9087C10.0825 14.9087 7.73795 17.185 7.73795 19.9909C7.73795 22.8004 10.0825 25.0749 12.9745 25.0749Z" fill="#212449"/></g>
</svg>
